<svg xmlns="http://www.w3.org/2000/svg" width="19" height="19" viewBox="0 0 19 19" fill="none">
    <path d="M11.115 7.05773C11.033 6.96501 10.9477 6.87081 10.8594 6.77512C11.3298 6.89899 11.79 7.03407 12.24 7.18031L12.2424 7.18108C12.7097 7.33037 13.2183 7.52248 13.7688 7.75843C13.7737 8.11881 13.8617 8.45792 14.0284 8.77023C13.799 9.22165 13.5917 9.66597 13.4066 10.1032C12.7303 9.006 11.9665 7.99065 11.115 7.05773ZM16.9602 4.42585C16.6638 4.75863 16.3857 5.09213 16.1263 5.42638C16.1065 5.4253 16.0872 5.42473 16.0684 5.42473C15.6007 5.42473 15.1752 5.55464 14.8048 5.8103C14.1406 5.52471 13.5117 5.28627 12.9187 5.09586C11.9011 4.76803 10.8414 4.49495 9.73994 4.27634C9.65524 4.11057 9.55313 3.95739 9.43338 3.818C9.69999 2.62217 10.039 1.52679 10.449 0.530414C11.7929 0.675377 13.0303 1.09311 14.1668 1.78319C15.297 2.46951 16.2269 3.34938 16.9602 4.42585ZM8.17637 0.582334C7.87051 1.36585 7.60923 2.19663 7.39201 3.07415C7.21434 3.10206 7.04186 3.15168 6.87528 3.22231C6.17335 2.71512 5.46699 2.26037 4.75617 1.85848C5.81112 1.18744 6.94986 0.762747 8.17637 0.582334ZM2.9897 3.30874C3.27982 3.46567 3.57419 3.63476 3.87281 3.81609C3.36659 3.84537 2.88081 3.89499 2.41574 3.96528C2.59353 3.74266 2.78481 3.5238 2.9897 3.30874ZM1.09184 6.32526C2.38187 5.99525 3.85917 5.85817 5.52922 5.92215C5.61129 6.23259 5.75847 6.51794 5.97005 6.77316C6.18342 7.03056 6.43677 7.23148 6.7266 7.37242C6.67132 8.11533 6.64355 8.82768 6.64355 9.50929C6.64355 9.9722 6.65668 10.4897 6.68271 11.0613C6.57668 11.1171 6.47536 11.1814 6.37887 11.2539C5.96574 11.0847 5.56281 10.9006 5.17002 10.7017C5.22284 10.5069 5.25 10.3072 5.25 10.1036C5.25 9.4774 5.02533 8.92885 4.5842 8.48728C4.14304 8.0457 3.59479 7.82063 2.96875 7.82063C2.45548 7.82063 1.99908 7.97227 1.61329 8.26613C1.30728 7.96937 1.02433 7.66607 0.764172 7.3563C0.847901 7.01069 0.957024 6.66705 1.09184 6.32526ZM0.733174 10.4987C0.8165 10.9955 1.05252 11.4274 1.43182 11.7795C1.86302 12.1797 2.38294 12.3866 2.96875 12.3866C3.09243 12.3866 3.21713 12.3725 3.34196 12.3468C4.01482 12.7247 4.72466 13.0595 5.47111 13.3514C5.52623 13.8473 5.73253 14.2884 6.08755 14.6571C6.41309 14.9953 6.80394 15.2127 7.24724 15.307C7.48986 16.4098 7.79951 17.4464 8.17704 18.416C7.30296 18.2852 6.46809 18.0292 5.67071 17.6481C4.62214 17.1469 3.72344 16.4982 2.96987 15.703C2.2168 14.9083 1.61539 13.9705 1.16727 12.8845C0.824859 12.0547 0.614299 11.198 0.53543 10.3126C0.600272 10.3751 0.666186 10.4371 0.733174 10.4987ZM9.54176 14.461C10.2407 14.5764 10.9435 14.6584 11.6499 14.7069C11.7095 14.8227 11.7784 14.934 11.856 15.0409C11.6231 16.1528 11.4702 17.2402 11.3978 18.303C11.0628 18.3778 10.7462 18.4326 10.4477 18.4679C9.98318 17.3431 9.60843 16.0892 9.32551 14.7041C9.40415 14.6291 9.47626 14.548 9.54176 14.461ZM15.8637 15.891C15.7873 15.566 15.6988 15.2337 15.5981 14.894C15.6504 14.8123 15.6972 14.7282 15.7381 14.6416C16.1746 14.6006 16.6042 14.5494 17.0269 14.4881C16.691 14.9909 16.3034 15.4585 15.8637 15.891ZM12.0004 12.1316C11.8936 12.25 11.8 12.3785 11.7199 12.5168C11.0925 12.4689 10.4721 12.3873 9.85861 12.2722C9.67736 11.7645 9.35017 11.3679 8.8857 11.1018C8.84911 10.4988 8.83105 9.96832 8.83105 9.50929C8.83105 8.97598 8.84716 8.42854 8.87944 7.86692C9.10477 8.09801 9.31172 8.31776 9.50044 8.5262C10.4655 9.59216 11.299 10.7934 12.0004 12.1316ZM13.6363 17.4951C13.6605 17.3076 13.6871 17.1203 13.7162 16.9333C13.7463 17.0931 13.7738 17.2526 13.7986 17.4117C13.746 17.4395 13.6919 17.4673 13.6363 17.4951ZM15.6167 12.4566C15.4709 12.2253 15.2832 12.0287 15.0584 11.8673C15.0723 11.8261 15.0846 11.7893 15.0955 11.7567C15.1143 11.7003 15.1292 11.6547 15.1397 11.6215C15.1442 11.607 15.1488 11.5922 15.1527 11.5787C15.3517 11.0837 15.5924 10.5573 15.8756 9.99935C15.9398 10.0059 16.0041 10.0093 16.0684 10.0093C16.4791 10.0093 16.8592 9.90227 17.2014 9.69619C17.6245 10.0034 18.0421 10.3362 18.454 10.695C18.3898 11.1779 18.2884 11.6475 18.1499 12.1042C17.3426 12.2607 16.4983 12.3783 15.6167 12.4566ZM18.3494 7.7287C18.3504 7.73358 18.3514 7.73847 18.3524 7.74336C18.3513 7.74263 18.3502 7.7419 18.3491 7.74118C18.3493 7.73701 18.3493 7.73285 18.3494 7.7287Z" fill="white" stroke="#FEFEF4"/>
  </svg>